<?xml version="1.0" encoding="UTF-8"?>
<svg id="Layer_1" data-name="Layer 1" xmlns="http://www.w3.org/2000/svg" version="1.1" viewBox="0 0 693.22 192.37">
  <path fill="#FFFFFF" d="M81.57,129.91c-.99,0-1.82-.24-2.47-.71-.65-.47-.98-1.05-.98-1.72s.34-1.28,1.02-1.81c1.2-1,5.93-2.89,14.16-5.69,8.24-2.8,13.12-4.2,14.64-4.2,1.31,0,1.96.73,1.96,2.2,0,.99-.78,1.75-2.35,2.27-1.15.32-2.33.63-3.53.94-1.78.52-3.59,1.05-5.42,1.57-2.83.89-4.19,1.54-4.08,1.96,15.33-2.09,32.83-7.75,52.51-16.96,6.54-3.03,14-7.01,22.37-11.93,12.29-7.17,18.44-12.04,18.44-14.6,0-2.93-4.47-4.4-13.42-4.4-7.59,0-17.74,1.02-30.45,3.06-13.55,2.2-23.34,4.55-29.36,7.06,1.31,5.96,2.46,10.94,3.45,14.91.58-1.1,1.29-1.65,2.12-1.65,1.04,0,1.91.92,2.59,2.75.47,1.41.71,2.8.71,4.16,0,1.67-.26,3.19-.78,4.55-.68,1.68-1.57,2.51-2.67,2.51-.78,0-1.62-.42-2.51-1.25-1.26-1.15-3.54-9.29-6.83-24.41-13.19,5.23-21.66,7.85-25.43,7.85-2.3,0-3.45-.84-3.45-2.51,0-.73.34-1.49,1.02-2.28,2.14-2.25,10.93-5.54,26.35-9.89-1.36-6.49-2.8-13.61-4.31-21.35-9.52,2.83-22.34,6.15-38.45,9.97-19.35,4.6-32.2,7.74-38.53,9.41-.84.31-1.65.6-2.43.86-1.31.42-2.36.63-3.14.63-1.41,0-2.12-.68-2.12-2.04,0-1.04.86-1.88,2.59-2.51,1.31-.32,2.62-.63,3.93-.94,18.78-5.23,31.63-8.74,38.53-10.52,14.45-3.77,27.4-6.75,38.85-8.95-.73-3.82-1.1-5.81-1.1-5.96,0-.31.18-.73.55-1.26.37-.52.79-.78,1.26-.78,1.36,0,2.48,2.41,3.38,7.22,13.03-2.35,23.54-3.53,31.55-3.53,4.13,0,7.75.36,10.83,1.09,5.02,1.21,7.53,3.25,7.53,6.12,0,3.61-5.78,8.71-17.35,15.31,10.99-1.78,20.49-2.67,28.49-2.67,5.66,0,10.55.44,14.68,1.33,7.01,1.41,10.52,3.9,10.52,7.46,0,5.55-7.69,12.61-23.08,21.19-9.94,5.55-20.35,10.41-31.24,14.6-9.73,3.82-19.15,6.85-28.26,9.1-11.66,2.93-21.77,4.4-30.3,4.4M140.05,56.6c-9.36,0-19.7,1.02-31,3.06,1.41,7.43,2.83,14.42,4.24,20.96,19.88-5.33,32.62-11.41,38.22-18.21.68-.83,1.02-1.6,1.02-2.28,0-2.35-4.16-3.53-12.48-3.53"/>
  <path fill="#FFFFFF" d="M195.46,104.25c.47,2.04.7,3.61.7,4.71,0,2.15-.76,3.22-2.27,3.22-1.73,0-2.6-1.54-2.6-4.63,0-1.41.16-2.62.47-3.61-.94-3.24-1.88-5.44-2.82-6.59-.31-.36-.47-.78-.47-1.25,0-1.15.58-1.73,1.73-1.73s2.38,1.81,3.84,5.41c3.35-4.03,8.69-6.83,16.01-8.4.58-.1,1.07,0,1.5.32.41.31.62.76.62,1.33,0,.89-.45,1.46-1.33,1.73-3.87,1.05-6.81,2.09-8.79,3.14-3.25,1.68-5.44,3.8-6.59,6.36"/>
  <path fill="#FFFFFF" d="M219.63,105.34c.68.63,2.2.94,4.55.94,3.51,0,7.48-.46,11.93-1.37,4.45-.92,8.32-2.05,11.62-3.42.26-.1.52-.15.78-.15,1.15,0,1.73.57,1.73,1.73,0,1.73-3.82,3.35-11.46,4.87-6.34,1.31-11.09,1.96-14.29,1.96-5.6,0-8.4-1.51-8.4-4.53,0-6.88,9.68-10.5,29.04-10.86-5.13-.99-13.87-1.48-26.22-1.48-1.21,0-1.8-.62-1.8-1.85,0-1.07.6-1.68,1.8-1.84.62-.11,3.95-.16,9.97-.16,4.82,0,9.21.31,13.19.94,6.8,1.1,10.2,2.91,10.2,5.42,0,1.57-2.72,2.46-8.16,2.67-9,.42-14.1.73-15.3.94-5.65.94-8.71,3.01-9.19,6.2"/>
  <path fill="#FFFFFF" d="M284.23,114.29c-4.14-1.73-7.12-4.61-8.95-8.63-.47-1.2-.94-2.41-1.41-3.61-.68-1.67-1.33-2.72-1.96-3.14-1.1.63-3.03,3.25-5.81,7.85-2.46,4.03-4.47,6.04-6.04,6.04-2.09,0-3.4-2.59-3.93-7.77-.11-3.4-.18-6.8-.23-10.2-.32-9.42-.47-24.59-.47-45.53,0-2.98.52-4.47,1.57-4.47.42,0,.8.22,1.14.66.34.45.51.91.51,1.38,0,19.68.08,33.2.23,40.58.11,4.45.44,11.2,1.02,20.25,3.14-4.66,4.89-7.2,5.26-7.61,2.72-3.5,4.98-5.26,6.75-5.26,1.88,0,3.33.97,4.31,2.91.99,2.15,1.97,4.29,2.91,6.44,1.57,2.83,3.79,4.97,6.67,6.43.84.42,1.25,1.02,1.25,1.81,0,1.36-.66,2.04-1.96,2.04-.26,0-.55-.05-.86-.16"/>
  <path fill="#FFFFFF" d="M331.24,115.23c-3.46,0-6.34-1.02-8.63-3.06-.68-.63-2.65-3.01-5.89-7.14-.36.42-1.23,2.36-2.59,5.81-.99,2.41-2.15,3.61-3.46,3.61-1.78,0-3.17-1.41-4.16-4.24-.74-2.62-1.44-5.23-2.12-7.85-.89-2.88-2.04-4.31-3.45-4.31-1.68,0-3.51,1.33-5.49,4-.42.52-1.99,2.96-4.71,7.3-1.62,2.62-2.83,3.92-3.61,3.92-.68,0-1.24-.27-1.69-.82-.45-.55-.67-1.16-.67-1.84v-18.05c0-1.36.68-2.04,2.04-2.04s2.04.68,2.04,2.04v11.85c4.45-7.01,8.47-10.52,12.09-10.52,3.19,0,5.49,1.86,6.9,5.57.84,3.19,1.67,6.38,2.52,9.57,1.78-5.86,3.92-8.79,6.44-8.79,1.15,0,2.38.94,3.69,2.83,1.99,2.88,3.27,4.61,3.85,5.18,1.93,1.83,4.23,2.75,6.91,2.75,1.36,0,2.04.71,2.04,2.12s-.68,2.12-2.04,2.12"/>
  <path fill="#FFFFFF" d="M380.69,73.16c.26-.1.55-.16.86-.16,1.57,0,2.35.79,2.35,2.36,0,.37-.36,1.91-1.1,4.64-.78,3.25-1.2,4.93-1.25,5.04,1.04,5.08,2.43,9.62,4.16,13.61,2.67,6.3,5.54,9.44,8.63,9.44,1.41,0,2.93-.99,4.56-2.98,4.97-6.24,8.92-18.36,11.85-36.39.68-4.14,1.02-6.47,1.02-7,0-.89-.09-2.25-.27-4.09-.19-1.83-.27-3.2-.27-4.09,0-4.45.94-6.68,2.83-6.68,2.09,0,3.13,1.99,3.13,5.97,0,.94-.1,2.31-.31,4.12-.21,1.81-.32,3.15-.32,4.04,0,.37.24,2.33.7,5.89.84,6.9,1.57,12.06,2.2,15.46.99,5.81,2.25,10.86,3.77,15.15,3.5,9.73,5.26,18.34,5.26,25.82,0,1.57-.77,2.35-2.32,2.35s-2.32-.78-2.32-2.35c0-6.96-1.65-15.04-4.95-24.25-1.37-3.77-2.99-11.12-4.87-22.06-4.98,23.81-11.5,35.71-19.58,35.71-6.08,0-11.01-5.65-14.78-16.95-1.05,12.56-2.02,19.31-2.91,20.25-.58.57-1.2.86-1.89.86-1.78,0-2.67-1.21-2.67-3.61,0-2.77.39-6.23,1.17-10.36,1.15-6.23,1.78-9.65,1.89-10.28.47-3.56.7-7.74.7-12.56,0,.16-.13-.81-.4-2.9-.42-2.93-.63-5.44-.63-7.54,0-2.87.89-4.32,2.67-4.32,1.41,0,2.33,1.05,2.75,3.14.21.79.32,2.35.32,4.71"/>
  <path fill="#FFFFFF" d="M434.93,105.34c.68.63,2.19.94,4.55.94,3.51,0,7.48-.46,11.93-1.37,4.44-.92,8.32-2.05,11.62-3.42.26-.1.52-.15.79-.15,1.15,0,1.73.57,1.73,1.73,0,1.73-3.82,3.35-11.46,4.87-6.33,1.31-11.09,1.96-14.28,1.96-5.6,0-8.4-1.51-8.4-4.53,0-6.88,9.68-10.5,29.04-10.86-5.13-.99-13.87-1.48-26.22-1.48-1.2,0-1.81-.62-1.81-1.85,0-1.07.6-1.68,1.81-1.84.63-.11,3.95-.16,9.97-.16,4.81,0,9.21.31,13.18.94,6.8,1.1,10.21,2.91,10.21,5.42,0,1.57-2.72,2.46-8.17,2.67-9,.42-14.1.73-15.3.94-5.66.94-8.71,3.01-9.18,6.2"/>
  <path fill="#FFFFFF" d="M499.85,106.68c-2.41,4.81-6.86,7.22-13.35,7.22-5.02,0-8.96-1.38-11.81-4.16-2.85-2.78-4.28-6.67-4.28-11.7,0-1.94.27-3.92.79-5.97.73-2.93,1.78-4.4,3.14-4.4s1.96.76,1.96,2.28c0,.94-.23,2.3-.71,4.08-.47,1.78-.71,3.14-.71,4.08,0,7.54,3.87,11.3,11.62,11.3,3.93,0,6.72-1.02,8.4-3.06.78-.99,1.54-2.93,2.27-5.81.53-2.04,1.39-3.06,2.59-3.06s1.96.76,2.28,2.28c.73,3.56,2.28,6.28,4.63,8.16,1.21.94,3.22,1.99,6.04,3.14,1.99.84,2.98,1.72,2.98,2.67,0,.73-.27,1.32-.82,1.77-.55.45-1.19.59-1.92.43-5.6-1.31-9.97-4.4-13.11-9.26"/>
  <path fill="#FFFFFF" d="M528.47,109.43c-4.97,0-8.32-.21-10.05-.63-3.82-.84-6.3-2.77-7.45-5.81-.27-.68-.39-1.42-.39-2.2,0-2.67,1.2-5.24,3.61-7.73,2.41-2.48,4.84-3.73,7.3-3.73,1.78,0,3.19.69,4.24,2.08,1.04,1.39,1.57,3,1.57,4.83,0,4.6-3.77,7.14-11.31,7.61,1.93,1.31,6.1,1.96,12.48,1.96,1.15,0,1.73.6,1.73,1.81s-.58,1.8-1.73,1.8M521.48,92.94c-1.57,0-3.14.88-4.71,2.63-1.57,1.75-2.43,3.44-2.59,5.06,1.88-.32,3.77-.66,5.65-1.02,2.56-.58,3.85-1.7,3.85-3.38,0-2.2-.73-3.3-2.2-3.3"/>
  <path fill="#FFFFFF" d="M540.87,104.25c.47,2.04.71,3.61.71,4.71,0,2.15-.76,3.22-2.28,3.22-1.73,0-2.59-1.54-2.59-4.63,0-1.41.15-2.62.47-3.61-.94-3.24-1.88-5.44-2.83-6.59-.31-.36-.47-.78-.47-1.25,0-1.15.57-1.73,1.73-1.73s2.38,1.81,3.85,5.41c3.34-4.03,8.68-6.83,16.01-8.4.57-.1,1.07,0,1.49.32.42.31.62.76.62,1.33,0,.89-.44,1.46-1.33,1.73-3.87,1.05-6.8,2.09-8.79,3.14-3.25,1.68-5.44,3.8-6.59,6.36"/>
  <path fill="#FFFFFF"  d="M616.66,27.22c-9.07-1.83-17.75-2.52-25.31-2.21,6.01.16,12.62.91,19.48,2.29,24.51,4.93,42.92,16.11,41.14,24.96-1.78,8.85-23.09,12.03-47.59,7.09-17.05-3.43-31.14-9.88-37.55-16.47,4.77,8.7,21.4,17.63,42.27,21.83,9.84,1.98,19.22,2.63,27.2,2.11,1.46,1.88-1.25,4.05-1.25,4.05,0,0-18.09,16.2-24.78,23.29-6.7,7.08-13.69.18-15.66-3.71-1.97-3.9-12.63-14.34-12.63-14.34,13.65,21.22,13.62,21.14,16.82,26.36l-1.88,2.34c-12.29,9.94-15.46,18.36-14.57,25.05-1.84-.07-3.63-.08-5.33,0,1.73.05,3.54.18,5.38.36,1.78,11.35,15.25,17.59,15.25,17.59,0,0,3.28,1.63,4.08-.58.58-1.6-2.34-3.64-2.34-3.64-7.54-3.96-10.87-8.37-11.69-12.71,1.35.21,2.72.45,4.11.73,18.62,3.75,32.61,12.24,31.25,18.97-1.35,6.72-17.54,9.13-36.16,5.39-12.95-2.61-23.66-7.51-28.52-12.52,3.62,6.61,16.25,13.39,32.11,16.59,19.84,3.99,37.21.85,38.79-7.01,1.59-7.86-13.22-17.48-33.05-21.47-2.95-.59-5.84-1.02-8.63-1.31-1.59-12.06,15.65-23.48,15.65-23.48l12.12-9.8c2.35-2.11,27.46-24.51,38.37-34.25,3.54-1.86,5.8-4.3,6.39-7.23,2.09-10.35-17.4-23.01-43.5-28.26"/>
</svg>