<svg xmlns="http://www.w3.org/2000/svg" version="1.1" xmlns:xlink="http://www.w3.org/1999/xlink" xmlns:svgjs="http://svgjs.dev/svgjs" width="1000" height="1000"><g clip-path="url(#SvgjsClipPath1100)"><rect width="1000" height="1000" fill="#ffffff"></rect><g transform="matrix(4.6777546777546775,0,0,4.6777546777546775,50.23388773388774,50)"><svg xmlns="http://www.w3.org/2000/svg" version="1.1" xmlns:xlink="http://www.w3.org/1999/xlink" xmlns:svgjs="http://svgjs.dev/svgjs" width="192.3" height="192.4"><svg id="Layer_1" xmlns="http://www.w3.org/2000/svg" version="1.1" viewBox="0 0 192.3 192.4">
  <!-- Generator: Adobe Illustrator 29.1.0, SVG Export Plug-In . SVG Version: 2.1.0 Build 142)  -->
  <defs>
    <style>
      .st0 {
        fill: #231f20;
      }
    </style>
  <clipPath id="SvgjsClipPath1100"><rect width="1000" height="1000" x="0" y="0" rx="250" ry="250"></rect></clipPath></defs>
  <path class="st0" d="M103.5,30.1c-9.1-1.8-17.8-2.5-25.3-2.2,6,.2,12.6.9,19.5,2.3,24.5,4.9,42.9,16.1,41.1,25-1.8,8.8-23.1,12-47.6,7.1-17-3.4-31.1-9.9-37.5-16.5,4.8,8.7,21.4,17.6,42.3,21.8,9.8,2,19.2,2.6,27.2,2.1,1.5,1.9-1.2,4.1-1.2,4.1,0,0-18.1,16.2-24.8,23.3-6.7,7.1-13.7.2-15.7-3.7-2-3.9-12.6-14.3-12.6-14.3,13.6,21.2,13.6,21.1,16.8,26.4l-1.9,2.3c-12.3,9.9-15.5,18.4-14.6,25.1-1.8,0-3.6,0-5.3,0,1.7,0,3.5.2,5.4.4,1.8,11.4,15.2,17.6,15.2,17.6,0,0,3.3,1.6,4.1-.6.6-1.6-2.3-3.6-2.3-3.6-7.5-4-10.9-8.4-11.7-12.7,1.4.2,2.7.4,4.1.7,18.6,3.8,32.6,12.2,31.2,19-1.4,6.7-17.5,9.1-36.2,5.4-13-2.6-23.7-7.5-28.5-12.5,3.6,6.6,16.2,13.4,32.1,16.6,19.8,4,37.2.9,38.8-7,1.6-7.9-13.2-17.5-33-21.5-3-.6-5.8-1-8.6-1.3-1.6-12.1,15.6-23.5,15.6-23.5l12.1-9.8c2.4-2.1,27.5-24.5,38.4-34.2,3.5-1.9,5.8-4.3,6.4-7.2,2.1-10.4-17.4-23-43.5-28.3"></path>
</svg></svg></g></g></svg>